<?xml version="1.0" encoding="UTF-8" standalone="no"?>
<!-- Created with Inkscape (http://www.inkscape.org/) -->

<svg
   xmlns:dc="http://purl.org/dc/elements/1.1/"
   xmlns:cc="http://creativecommons.org/ns#"
   xmlns:rdf="http://www.w3.org/1999/02/22-rdf-syntax-ns#"
   xmlns:svg="http://www.w3.org/2000/svg"
   xmlns="http://www.w3.org/2000/svg"
   xmlns:sodipodi="http://sodipodi.sourceforge.net/DTD/sodipodi-0.dtd"
   xmlns:inkscape="http://www.inkscape.org/namespaces/inkscape"
   width="2.4271111mm"
   height="1.8908889mm"
   viewBox="0 0 8.6000001 6.7000001"
   id="svg3537"
   version="1.1"
   inkscape:version="0.91 r13725"
   sodipodi:docname="email.svg">
  <defs
     id="defs3539" />
  <sodipodi:namedview
     id="base"
     pagecolor="#ffffff"
     bordercolor="#666666"
     borderopacity="1.0"
     inkscape:pageopacity="0.0"
     inkscape:pageshadow="2"
     inkscape:zoom="52.761193"
     inkscape:cx="4.3000001"
     inkscape:cy="3.3500001"
     inkscape:document-units="px"
     inkscape:current-layer="layer1"
     showgrid="false"
     fit-margin-top="0"
     fit-margin-left="0"
     fit-margin-right="0"
     fit-margin-bottom="0"
     inkscape:window-width="1375"
     inkscape:window-height="876"
     inkscape:window-x="65"
     inkscape:window-y="24"
     inkscape:window-maximized="1" />
  <metadata
     id="metadata3542">
    <rdf:RDF>
      <cc:Work
         rdf:about="">
        <dc:format>image/svg+xml</dc:format>
        <dc:type
           rdf:resource="http://purl.org/dc/dcmitype/StillImage" />
        <dc:title></dc:title>
      </cc:Work>
    </rdf:RDF>
  </metadata>
  <g
     inkscape:label="Layer 1"
     inkscape:groupmode="layer"
     id="layer1"
     transform="translate(590.01429,-609.0122)">
    <g
       transform="translate(-592.71429,605.5122)"
       id="g3495"
       style="fill:#ffffff">
      <path
         inkscape:connector-curvature="0"
         class="st1"
         d="m 10.5,10.2 c 0.2,0 0.4,-0.1 0.5,-0.2 L 8.6,7.6 C 8.5,7.6 8.5,7.7 8.4,7.7 8.2,7.8 8.1,8 8,8 7.9,8.1 7.7,8.2 7.5,8.3 7.3,8.3 7.2,8.4 7,8.4 l 0,0 0,0 C 6.8,8.4 6.7,8.4 6.5,8.3 6.3,8.2 6.1,8.1 6,8 5.9,8 5.7,7.8 5.5,7.7 5.4,7.7 5.4,7.6 5.3,7.6 L 2.9,10 c 0.1,0.1 0.3,0.2 0.5,0.2 l 7.1,0 z"
         id="path3497"
         style="fill:#ffffff" />
      <path
         inkscape:connector-curvature="0"
         class="st1"
         d="M 3.3,6.1 C 3.1,5.9 2.9,5.8 2.8,5.6 L 2.8,9.3 5,7.1 C 4.5,6.9 3.9,6.5 3.3,6.1 Z"
         id="path3499"
         style="fill:#ffffff" />
      <path
         inkscape:connector-curvature="0"
         class="st1"
         d="M 10.7,6.1 C 10.1,6.5 9.5,6.9 9,7.2 l 2.2,2.2 0,-3.8 c -0.1,0.2 -0.3,0.3 -0.5,0.5 z"
         id="path3501"
         style="fill:#ffffff" />
      <path
         inkscape:connector-curvature="0"
         class="st1"
         d="m 10.5,3.5 -7.1,0 C 3.2,3.5 3,3.6 2.9,3.8 2.7,4 2.7,4.2 2.7,4.4 2.7,4.6 2.8,4.8 3,5.1 3.2,5.3 3.4,5.5 3.6,5.7 3.7,5.8 4,6 4.6,6.4 4.8,6.5 5,6.7 5.3,6.9 5.4,7 5.6,7.1 5.7,7.2 c 0,0 0,0 0.1,0.1 0,0 0.1,0.1 0.1,0.1 0.1,0.1 0.2,0.1 0.3,0.2 0.1,0 0.2,0.1 0.3,0.2 0.1,0.1 0.2,0.1 0.3,0.1 0.1,0 0.2,0 0.2,0 l 0,0 0,0 c 0.1,0 0.2,0 0.2,0 C 7.3,7.9 7.4,7.8 7.5,7.8 7.6,7.7 7.7,7.7 7.8,7.6 7.9,7.6 8,7.5 8.1,7.4 c 0.1,0 0.1,-0.1 0.1,-0.1 0,0 0.1,0 0.1,-0.1 C 8.3,7.1 8.5,7 8.7,6.9 9.1,6.6 9.7,6.2 10.5,5.7 10.7,5.5 10.9,5.3 11.1,5.1 11.3,4.9 11.3,4.6 11.3,4.4 11.3,4.2 11.2,4 11.1,3.9 10.9,3.6 10.7,3.5 10.5,3.5 Z"
         id="path3503"
         style="fill:#ffffff" />
    </g>
  </g>
</svg>
