<?xml version="1.0" encoding="UTF-8" standalone="no"?>
<!-- Created with Inkscape (http://www.inkscape.org/) -->

<svg
   xmlns:dc="http://purl.org/dc/elements/1.1/"
   xmlns:cc="http://creativecommons.org/ns#"
   xmlns:rdf="http://www.w3.org/1999/02/22-rdf-syntax-ns#"
   xmlns:svg="http://www.w3.org/2000/svg"
   xmlns="http://www.w3.org/2000/svg"
   xmlns:sodipodi="http://sodipodi.sourceforge.net/DTD/sodipodi-0.dtd"
   xmlns:inkscape="http://www.inkscape.org/namespaces/inkscape"
   width="1.4957777mm"
   height="2.935111mm"
   viewBox="0 0 5.2999998 10.4"
   id="svg3588"
   version="1.1"
   inkscape:version="0.91 r13725"
   sodipodi:docname="facebook.svg">
  <defs
     id="defs3590" />
  <sodipodi:namedview
     id="base"
     pagecolor="#ffffff"
     bordercolor="#666666"
     borderopacity="1.0"
     inkscape:pageopacity="0.0"
     inkscape:pageshadow="2"
     inkscape:zoom="67.980771"
     inkscape:cx="0.17135781"
     inkscape:cy="5.1999999"
     inkscape:document-units="px"
     inkscape:current-layer="layer1"
     showgrid="false"
     fit-margin-top="0"
     fit-margin-left="0"
     fit-margin-right="0"
     fit-margin-bottom="0"
     inkscape:window-width="1375"
     inkscape:window-height="876"
     inkscape:window-x="65"
     inkscape:window-y="24"
     inkscape:window-maximized="1" />
  <metadata
     id="metadata3593">
    <rdf:RDF>
      <cc:Work
         rdf:about="">
        <dc:format>image/svg+xml</dc:format>
        <dc:type
           rdf:resource="http://purl.org/dc/dcmitype/StillImage" />
        <dc:title></dc:title>
      </cc:Work>
    </rdf:RDF>
  </metadata>
  <g
     inkscape:label="Layer 1"
     inkscape:groupmode="layer"
     id="layer1"
     transform="translate(302.65,-570.01935)">
    <g
       transform="translate(-325.25,566.31935)"
       id="g3469"
       style="fill:#ffffff">
      <path
         inkscape:connector-curvature="0"
         class="st1"
         d="m 26.1,5.5 c 0.1,-0.1 0.3,-0.2 0.6,-0.2 0.3,0 0.6,0 1,0.1 L 27.9,4 C 27.3,3.8 26.8,3.7 26.2,3.7 25.6,3.7 25.1,3.8 24.8,4 24.4,4.2 24.2,4.5 24,4.8 23.9,5.1 23.8,5.6 23.8,6.3 l 0,0.6 -1.2,0 0,1.7 1.2,0 0,5.3 c 0.5,0.1 1,0.2 1.5,0.2 0.2,0 0.4,0 0.6,0 l 0,-5.5 1.5,0 0,-1.7 -1.5,0 0,-0.6 c 0,-0.4 0,-0.6 0.2,-0.8 z"
         id="path3471"
         style="fill:#ffffff" />
    </g>
  </g>
</svg>
