<?xml version="1.0" encoding="UTF-8" standalone="no"?>
<!-- Created with Inkscape (http://www.inkscape.org/) -->

<svg
   xmlns:dc="http://purl.org/dc/elements/1.1/"
   xmlns:cc="http://creativecommons.org/ns#"
   xmlns:rdf="http://www.w3.org/1999/02/22-rdf-syntax-ns#"
   xmlns:svg="http://www.w3.org/2000/svg"
   xmlns="http://www.w3.org/2000/svg"
   xmlns:sodipodi="http://sodipodi.sourceforge.net/DTD/sodipodi-0.dtd"
   xmlns:inkscape="http://www.inkscape.org/namespaces/inkscape"
   width="2.1448889mm"
   height="2.1448889mm"
   viewBox="0 0 7.6 7.5999999"
   id="svg3633"
   version="1.1"
   inkscape:version="0.91 r13725"
   sodipodi:docname="instagram.svg">
  <defs
     id="defs3635" />
  <sodipodi:namedview
     id="base"
     pagecolor="#ffffff"
     bordercolor="#666666"
     borderopacity="1.0"
     inkscape:pageopacity="0.0"
     inkscape:pageshadow="2"
     inkscape:zoom="93.026316"
     inkscape:cx="3.8"
     inkscape:cy="3.8"
     inkscape:document-units="px"
     inkscape:current-layer="layer1"
     showgrid="false"
     fit-margin-top="0"
     fit-margin-left="0"
     fit-margin-right="0"
     fit-margin-bottom="0"
     inkscape:window-width="1375"
     inkscape:window-height="876"
     inkscape:window-x="65"
     inkscape:window-y="24"
     inkscape:window-maximized="1" />
  <metadata
     id="metadata3638">
    <rdf:RDF>
      <cc:Work
         rdf:about="">
        <dc:format>image/svg+xml</dc:format>
        <dc:type
           rdf:resource="http://purl.org/dc/dcmitype/StillImage" />
        <dc:title></dc:title>
      </cc:Work>
    </rdf:RDF>
  </metadata>
  <g
     inkscape:label="Layer 1"
     inkscape:groupmode="layer"
     id="layer1"
     transform="translate(1252.3714,237.15208)">
    <g
       transform="translate(-1323.6714,-240.45208)"
       id="g3491"
       style="fill:#ffffff">
      <path
         inkscape:connector-curvature="0"
         class="st2"
         d="m 77.9,3.3 c -1.8,0 -3.7,0 -5.6,0 -0.7,0 -1,0.3 -1,1 0,0.9 0,1.8 0,2.8 0,0.9 0,1.9 0,2.8 0,0.6 0.4,1 1,1 1.9,0 3.7,0 5.6,0 0.6,0 1,-0.4 1,-1 0,-1.9 0,-3.7 0,-5.6 0,-0.7 -0.3,-1 -1,-1 z m -0.6,0.8 c 0.7,0 0.7,0 0.7,0.7 0,0.7 0,0.7 -0.7,0.7 -0.7,0 -0.7,0 -0.7,-0.7 0,-0.7 0,-0.7 0.7,-0.7 z m -2.2,1.5 c 0.8,0 1.5,0.7 1.5,1.5 0,0.8 -0.7,1.5 -1.5,1.5 -0.8,0 -1.5,-0.7 -1.4,-1.5 0,-0.9 0.7,-1.5 1.4,-1.5 z M 78,9.5 c 0,0.4 -0.1,0.5 -0.4,0.5 -0.8,0 -1.6,0 -2.5,0 -0.8,0 -1.6,0 -2.5,0 -0.3,0 -0.4,-0.1 -0.4,-0.5 0,-0.9 0,-1.8 0,-2.7 0,-0.3 0.1,-0.3 0.3,-0.3 0.3,0 0.4,0 0.3,0.3 -0.1,1.2 0.7,2.3 1.8,2.5 1.2,0.2 2.4,-0.5 2.7,-1.6 0.1,-0.4 0.1,-0.7 0.1,-1.1 0,-0.1 0,-0.2 0.1,-0.2 0.5,0 0.5,0 0.5,0.5 0,0.9 0,1.7 0,2.6 z"
         id="path3493"
         style="fill:#ffffff" />
    </g>
  </g>
</svg>
