<?xml version="1.0" encoding="UTF-8" standalone="no"?>
<!-- Generator: Adobe Illustrator 22.1.0, SVG Export Plug-In . SVG Version: 6.00 Build 0)  -->

<svg
   xmlns:dc="http://purl.org/dc/elements/1.1/"
   xmlns:cc="http://creativecommons.org/ns#"
   xmlns:rdf="http://www.w3.org/1999/02/22-rdf-syntax-ns#"
   xmlns:svg="http://www.w3.org/2000/svg"
   xmlns="http://www.w3.org/2000/svg"
   xmlns:xlink="http://www.w3.org/1999/xlink"
   xmlns:sodipodi="http://sodipodi.sourceforge.net/DTD/sodipodi-0.dtd"
   xmlns:inkscape="http://www.inkscape.org/namespaces/inkscape"
   version="1.1"
   id="Layer_1"
   x="0px"
   y="0px"
   viewBox="0 0 281.61639 189.91426"
   xml:space="preserve"
   inkscape:version="0.91 r13725"
   sodipodi:docname="logo-mobile.svg"
   width="281.61639"
   height="189.91426"><metadata
     id="metadata3943"><rdf:RDF><cc:Work
         rdf:about=""><dc:format>image/svg+xml</dc:format><dc:type
           rdf:resource="http://purl.org/dc/dcmitype/StillImage" /><dc:title></dc:title></cc:Work></rdf:RDF></metadata><defs
     id="defs3941" /><sodipodi:namedview
     pagecolor="#ffffff"
     bordercolor="#666666"
     borderopacity="1"
     objecttolerance="10"
     gridtolerance="10"
     guidetolerance="10"
     inkscape:pageopacity="0"
     inkscape:pageshadow="2"
     inkscape:window-width="1375"
     inkscape:window-height="876"
     id="namedview3939"
     showgrid="false"
     inkscape:zoom="0.64635417"
     inkscape:cx="310.65442"
     inkscape:cy="286.11855"
     inkscape:window-x="65"
     inkscape:window-y="24"
     inkscape:window-maximized="1"
     inkscape:current-layer="Layer_1"
     fit-margin-top="0"
     fit-margin-left="0"
     fit-margin-right="0"
     fit-margin-bottom="0" /><style
     type="text/css"
     id="style3883">
	.st0{clip-path:url(#SVGID_2_);}
	.st1{fill:#252122;}
	.st2{fill:#FFFFFF;}
	.st3{font-family:'Helvetica-Bold';}
	.st4{font-size:42.2344px;}
	.st5{font-family:'Helvetica';}
	.st6{font-size:13.0924px;}
	.st7{font-size:84.3186px;}
	.st8{font-size:26.1383px;}
</style><g
     id="g3885"
     transform="translate(-768.3836,-277.16939)"><g
       id="g3887"><defs
         id="defs3889"><rect
           id="SVGID_1_"
           x="766"
           y="256.29999"
           width="284"
           height="207.89999" /></defs><clipPath
         id="SVGID_2_"><use
           xlink:href="#SVGID_1_"
           style="overflow:visible"
           id="use3893"
           x="0"
           y="0"
           width="100%"
           height="100%" /></clipPath><g
         class="st0"
         id="g3895"
         clip-path="url(#SVGID_2_)"><path
           class="st1"
           d="m 1522.4,393.9 c -34.4,0 -696.6,-0.4 -730.3,0.2 -12.2,0.2 -23.1,12.9 -23.7,24.6 -0.5,11.7 10.5,25.8 23.7,26.2 33.7,1 695.8,0.3 730.3,0.3 0,-17.5 0,-33.6 0,-51.3 z"
           id="path3897"
           inkscape:connector-curvature="0"
           style="fill:#252122" /><path
           class="st1"
           d="m 1522.4,335.6 c -34.4,0 -696.6,-0.4 -730.3,0.2 -12.2,0.2 -23.1,12.9 -23.7,24.6 -0.5,11.7 10.5,25.8 23.7,26.2 33.7,1 695.8,0.3 730.3,0.3 0,-17.5 0,-33.7 0,-51.3 z"
           id="path3899"
           inkscape:connector-curvature="0"
           style="fill:#252122" /><path
           class="st1"
           d="m 1522.4,277.3 c -34.4,0 -696.6,-0.4 -730.3,0.2 -12.2,0.2 -23.1,12.9 -23.7,24.6 -0.5,11.7 10.5,25.8 23.7,26.2 33.7,1 695.8,0.3 730.3,0.3 0,-17.6 0,-33.7 0,-51.3 z"
           id="path3901"
           inkscape:connector-curvature="0"
           style="fill:#252122" /></g></g><g
       id="g3903"><g
         id="g3905"><text
           transform="translate(803.875,317.0259)"
           id="text3907"><tspan
             x="0"
             y="0"
             class="st2 st3 st4"
             id="tspan3909"
             style="font-size:42.2344017px;font-family:Helvetica-Bold;fill:#ffffff">Senadores</tspan><tspan
             x="-10.6"
             y="57.099998"
             class="st2 st3 st4"
             id="tspan3911"
             style="font-size:42.2344017px;font-family:Helvetica-Bold;fill:#ffffff">respeitem o</tspan><tspan
             x="7"
             y="114.2"
             class="st2 st3 st4"
             id="tspan3913"
             style="font-size:42.2344017px;font-family:Helvetica-Bold;fill:#ffffff">Itamaraty!</tspan></text>
<text
           transform="translate(812.54,464.2295)"
           class="st1 st5 st6"
           id="text3915"
           style="font-size:13.0923996px;font-family:Helvetica;fill:#252122">#RespeitaoItamaraty #342agora</text>
</g></g></g></svg>